<svg xmlns="http://www.w3.org/2000/svg" width="24" height="23.4" viewBox="0 0 24 23.4">
  <g id="Adobe_Lightroom" data-name="Adobe Lightroom" transform="translate(27.692 27)">
    <g id="Layer_2" data-name="Layer 2" transform="translate(-27.692 -27)">
      <g id="Surfaces">
        <g id="Photo_Surface" data-name="Photo Surface">
          <g id="Outline_no_shadow" data-name="Outline no shadow">
            <rect id="Rectangle_223768" data-name="Rectangle 223768" width="24" height="23.4" rx="4" fill="#001e36"/>
          </g>
        </g>
      </g>
      <g id="Outlined_Mnemonics_Logos" data-name="Outlined Mnemonics Logos" transform="translate(6.076 5.976)">
        <g id="Lr">
          <path id="Path_358423" data-name="Path 358423" d="M20.6,24.407H14.236q-.162,0-.162-.177V13.974a.128.128,0,0,1,.109-.145.125.125,0,0,1,.036,0H16.19a.1.1,0,0,1,.113.085.1.1,0,0,1,0,.028v8.431h4.635q.145,0,.113.145l-.291,1.745a.154.154,0,0,1-.065.121A.214.214,0,0,1,20.6,24.407Z" transform="translate(-14.073 -13.827)" fill="#31a8ff"/>
          <path id="Path_358424" data-name="Path 358424" d="M32.613,19.488h1.761a.22.22,0,0,1,.21.161.792.792,0,0,1,.081.226,2.572,2.572,0,0,1,.048.315q.016.17.016.363A3.778,3.778,0,0,1,35.8,19.69a3.024,3.024,0,0,1,1.494-.363.129.129,0,0,1,.145.146v1.954q0,.113-.161.113a4.078,4.078,0,0,0-1.9.34,1.71,1.71,0,0,0-.541.371v5.12q0,.145-.129.145H32.758a.142.142,0,0,1-.161-.121.157.157,0,0,1,0-.04V21.8q0-.355-.008-.751t-.024-.783A5.125,5.125,0,0,0,32.5,19.6a.093.093,0,0,1,.113-.113Z" transform="translate(-24.488 -16.935)" fill="#31a8ff"/>
        </g>
      </g>
    </g>
  </g>
</svg>
