<svg id="mnemonic-Acrobat_Reader-32x32" data-name="mnemonic-Acrobat Reader-32x32" xmlns="http://www.w3.org/2000/svg" width="24" height="23.573" viewBox="0 0 24 23.573">
  <path id="Path_102649" data-name="Path 102649" d="M4.262.4H19.738A4.275,4.275,0,0,1,24,4.693V19.68a4.275,4.275,0,0,1-4.262,4.293H4.262A4.275,4.275,0,0,1,0,19.68V4.693A4.228,4.228,0,0,1,4.262.4Z" transform="translate(0 -0.4)" fill="#b30b00"/>
  <path id="Path_102650" data-name="Path 102650" d="M20.657,15.488c-1.122-1.2-4.19-.678-4.938-.6a16.81,16.81,0,0,1-2.095-2.711A11.885,11.885,0,0,0,14.3,8.559c0-1.13-.449-2.259-1.646-2.259a1.193,1.193,0,0,0-1.047.6c-.524.9-.3,2.711.524,4.594a29.735,29.735,0,0,1-2.095,4.971c-1.2.452-3.816,1.657-4.04,3.012a1.111,1.111,0,0,0,.374,1.054,1.4,1.4,0,0,0,1.047.377c1.571,0,3.142-2.184,4.264-4.142a24.079,24.079,0,0,1,3.741-.979,5.814,5.814,0,0,0,3.89,1.732c1.047,0,1.421-.452,1.571-.828A1.046,1.046,0,0,0,20.657,15.488Zm-1.047.753c-.075.3-.449.6-1.122.452a5.446,5.446,0,0,1-2.17-1.13,10.179,10.179,0,0,1,2.693-.075A.683.683,0,0,1,19.61,16.241ZM12.353,7.2a.411.411,0,0,1,.374-.226c.374,0,.449.452.449.828a10.875,10.875,0,0,1-.524,2.711A4.917,4.917,0,0,1,12.353,7.2Zm-.075,8.51a18.11,18.11,0,0,0,.973-2.41A14.009,14.009,0,0,0,14.6,15.112,10.632,10.632,0,0,0,12.278,15.714ZM9.734,17.446c-1.047,1.657-2.02,2.711-2.619,2.711a.447.447,0,0,1-.3-.075.5.5,0,0,1-.075-.452C6.817,19.028,8.014,18.2,9.734,17.446Z" transform="translate(-1.475 -1.857)" fill="#fff"/>
</svg>
