<svg id="mnemonic-Photoshop-32x32" xmlns="http://www.w3.org/2000/svg" width="24" height="23.475" viewBox="0 0 24 23.475">
  <path id="Path_99550" data-name="Path 99550" d="M4.275,0H19.8A4.21,4.21,0,0,1,24,4.275V19.2a4.273,4.273,0,0,1-4.275,4.275H4.275A4.273,4.273,0,0,1,0,19.2V4.275A4.226,4.226,0,0,1,4.275,0Z" fill="#001e36"/>
  <path id="Path_99551" data-name="Path 99551" d="M7.2,18.425V8.15c0-.075,0-.15.075-.15h3.15a5.243,5.243,0,0,1,2.025.3,3.933,3.933,0,0,1,1.35.75,2.967,2.967,0,0,1,.75,1.125,3.809,3.809,0,0,1,.225,1.275,3.658,3.658,0,0,1-.6,2.1,3.555,3.555,0,0,1-1.575,1.2,7.07,7.07,0,0,1-2.25.375H9.375V18.35a.262.262,0,0,1-.075.15H7.35C7.275,18.575,7.2,18.5,7.2,18.425ZM9.375,9.95v3.375h.9a5.789,5.789,0,0,0,1.125-.15,1.942,1.942,0,0,0,.825-.525,1.466,1.466,0,0,0,.3-1.05,2,2,0,0,0-.225-.9,2.587,2.587,0,0,0-.675-.6,3.109,3.109,0,0,0-1.2-.225H9.75A1.526,1.526,0,0,0,9.375,9.95Z" transform="translate(-1.8 -2)" fill="#31a8ff"/>
  <path id="Path_99552" data-name="Path 99552" d="M23.85,13.45a3.768,3.768,0,0,0-.975-.375,5.789,5.789,0,0,0-1.125-.15,1.651,1.651,0,0,0-.6.075c-.15,0-.225.075-.3.225-.075.075-.075.15-.075.3a.276.276,0,0,0,.075.225,1.636,1.636,0,0,0,.375.3,2.664,2.664,0,0,0,.675.3,5.622,5.622,0,0,1,1.5.75,4.3,4.3,0,0,1,.825.825,2.4,2.4,0,0,1,.225,1.05,3.056,3.056,0,0,1-.375,1.35,3.321,3.321,0,0,1-1.125.9,4.538,4.538,0,0,1-1.8.3,8.264,8.264,0,0,1-1.35-.15,5.525,5.525,0,0,1-1.05-.3c-.075,0-.15-.15-.15-.225V17.125l.075-.075h.075a6.488,6.488,0,0,0,1.275.525,5.829,5.829,0,0,0,1.2.15,2.007,2.007,0,0,0,.825-.15.506.506,0,0,0,.3-.45.412.412,0,0,0-.225-.375,2.972,2.972,0,0,0-.975-.45,5.187,5.187,0,0,1-1.425-.75,2.6,2.6,0,0,1-.75-.825,2.4,2.4,0,0,1-.225-1.05,2.266,2.266,0,0,1,.375-1.2,2.069,2.069,0,0,1,1.05-.9,4.017,4.017,0,0,1,1.8-.375,7.276,7.276,0,0,1,1.275.075,3.955,3.955,0,0,1,.9.225l.075.075v1.8l-.075.075h-.3Z" transform="translate(-4.65 -2.8)" fill="#31a8ff"/>
</svg>
