<svg xmlns="http://www.w3.org/2000/svg" width="24" height="23.4" viewBox="0 0 24 23.4">
  <g id="Adobe_Illustrator" data-name="Adobe Illustrator" transform="translate(27.692 27)">
    <g id="Layer_2" data-name="Layer 2" transform="translate(-27.692 -27)">
      <g id="Surfaces">
        <g id="Drawing_Surface" data-name="Drawing Surface">
          <g id="Outline_no_shadow" data-name="Outline no shadow">
            <rect id="Rectangle_223781" data-name="Rectangle 223781" width="24" height="23.4" rx="4" fill="#300"/>
          </g>
        </g>
      </g>
      <g id="Outlined_Mnemonics_Logos" data-name="Outlined Mnemonics Logos" transform="translate(4.976 5.206)">
        <g id="Ai">
          <path id="Path_358451" data-name="Path 358451" d="M18.083,21.849H14.378l-.754,2.342a.189.189,0,0,1-.193.144H11.554q-.161,0-.112-.176l3.208-9.239q.048-.144.1-.329a3.413,3.413,0,0,0,.064-.649.1.1,0,0,1,.084-.112.1.1,0,0,1,.028,0h2.551c.075,0,.117.027.128.08l3.641,10.266q.048.161-.1.16H19.061a.148.148,0,0,1-.161-.112Zm-3.128-2.021h2.534q-.1-.321-.224-.722t-.273-.858l-.289-.914q-.144-.457-.265-.882t-.216-.778h-.016a13.014,13.014,0,0,1-.337,1.284q-.225.721-.457,1.476t-.457,1.4Z" transform="translate(-11.431 -13.026)" fill="#ff9a00"/>
          <path id="Path_358452" data-name="Path 358452" d="M37.567,14.474a1.164,1.164,0,0,1-.882-.353,1.269,1.269,0,0,1-.337-.914,1.178,1.178,0,0,1,.361-.89,1.24,1.24,0,0,1,.89-.345,1.193,1.193,0,0,1,.907.345,1.239,1.239,0,0,1,.329.89,1.252,1.252,0,0,1-.345.914A1.231,1.231,0,0,1,37.567,14.474ZM36.46,23.12V15.452q0-.144.129-.144h1.973q.128,0,.128.144V23.12q0,.161-.128.16H36.6C36.508,23.28,36.46,23.227,36.46,23.12Z" transform="translate(-25.59 -11.971)" fill="#ff9a00"/>
        </g>
      </g>
    </g>
  </g>
</svg>
