<svg width="38" height="42" viewBox="0 0 38 42" fill="none" xmlns="http://www.w3.org/2000/svg">
<path d="M19.8097 41.0516C7.28617 41.0516 3.94009 26.6225 5.4526 17.1685C5.51843 16.757 6.00642 16.6385 6.21905 16.984C6.87752 18.0537 7.46348 19.5987 8.43434 19.4646C9.89355 19.263 10.9045 5.03154 19.5528 1.02718C19.8273 0.900118 20.1144 1.14121 20.0843 1.46835C19.6567 6.10582 22.1759 12.745 26.639 12.745C29.1975 12.745 30.948 10.4882 31.8227 8.22165C32.0884 7.53316 32.9986 7.61995 33.151 8.34929C34.7119 15.8209 38.8844 41.0516 19.8097 41.0516Z" fill="#FF8F1F"/>
<path d="M15.4193 27.138C15.7138 26.8645 16.1609 27.0522 16.2278 27.4709C16.3843 28.4506 16.8987 30.1343 18.5863 30.1343C20.6164 30.1343 21.994 23.9603 22.3553 22.1446C22.4148 21.8458 22.6782 21.6429 22.9494 21.7039C28.0226 22.844 30.4892 41.0516 19.3347 41.0516C11.2143 41.0516 13.0539 29.3343 15.4193 27.138ZM29.282 7.41994C29.4608 5.87431 26.908 10.1018 26.908 10.1018C26.908 10.1018 28.8542 11.1178 29.282 7.41994ZM3.5597 30.4709C3.61351 29.8129 2.84765 28.0512 2.71205 28.7487C2.38749 30.4176 3.50589 31.1289 3.5597 30.4709Z" fill="#FFB636"/>
<path d="M23.9857 28.5957C23.7954 27.7188 23.1132 29.7556 23.1989 30.5853C23.2847 31.4149 24.4407 30.6938 23.9857 28.5957Z" fill="#FFD469"/>
</svg>
