<svg width="130" height="27" viewBox="0 0 130 27" fill="none" xmlns="http://www.w3.org/2000/svg">
<mask id="mask0_5_764" style="mask-type:luminance" maskUnits="userSpaceOnUse" x="0" y="0" width="26" height="26">
<path d="M0 0H25.5281V25.342H0V0Z" fill="white"/>
</mask>
<g mask="url(#mask0_5_764)">
<path d="M18.8988 1.68904L18.7863 1.62845C16.8821 0.544403 14.8352 -0.000866417 12.6433 -0.00952148H1.00443C0.86811 -0.00952148 0.738283 0.0164437 0.612785 0.0683741C0.487286 0.120305 0.376934 0.193873 0.279564 0.289078C0.184359 0.386448 0.110791 0.4968 0.0588603 0.622298C0.00692986 0.747797 -0.0190353 0.877623 -0.0190353 1.01394V24.1489C-0.0190353 24.2853 0.00692986 24.4151 0.0588603 24.5406C0.110791 24.6661 0.184359 24.7764 0.279564 24.8738C0.376934 24.969 0.487286 25.0426 0.612785 25.0945C0.738283 25.1464 0.86811 25.1724 1.00443 25.1724H12.5936C13.286 25.1789 13.974 25.127 14.6578 25.0188C15.3415 24.9106 16.0123 24.7461 16.6679 24.5276C17.3257 24.3091 17.9597 24.0386 18.5721 23.714C19.1844 23.3916 19.7664 23.0194 20.316 22.5997C20.8678 22.1799 21.3806 21.719 21.8545 21.2149C22.3305 20.7107 22.7611 20.1719 23.1463 19.5964C23.5314 19.0208 23.8668 18.4193 24.1546 17.7875C24.4402 17.1578 24.6739 16.5087 24.8513 15.8401C25.0309 15.1693 25.1542 14.492 25.2213 13.8018C25.2884 13.1137 25.2992 12.4235 25.2516 11.7311C25.2062 11.0408 25.1023 10.3592 24.9443 9.68415C24.7842 9.01122 24.57 8.3556 24.3039 7.71729C24.0356 7.07682 23.7175 6.46447 23.3496 5.87809C22.9796 5.29387 22.5664 4.73995 22.1076 4.22281C21.6468 3.70567 21.1491 3.22964 20.6103 2.79256C20.0715 2.35764 19.5003 1.96816 18.8988 1.62845V1.68904ZM14.8049 11.5363C7.4135 11.2291 2.069 8.89654 2.069 6.79769V2.07851C7.25988 2.48747 11.9682 5.99926 14.7725 11.5666L14.8049 11.5363ZM7.63854 12.5598C5.61974 13.0055 3.76107 13.8148 2.05818 14.9875V10.1753C3.75457 11.3416 5.60676 12.1465 7.6169 12.5923L7.63854 12.5598ZM2.03871 18.508C2.03871 16.3594 7.37239 13.9641 14.7638 13.6568C12.0288 19.01 7.38321 22.6646 2.03871 23.0844V18.508ZM12.5936 2.0374C14.2662 2.04173 15.8457 2.42688 17.3322 3.19285C17.2868 5.49943 16.9254 7.75624 16.2482 9.96112C15.3827 8.31016 14.3051 6.81067 13.0177 5.46481C11.7302 4.11678 10.2827 2.97431 8.67282 2.0374H12.5936ZM17.8645 21.7342C16.2352 22.6776 14.476 23.1471 12.5936 23.1449H8.64036C10.6051 21.9787 12.3296 20.5268 13.8161 18.7914C15.3004 17.0583 16.471 15.1304 17.3214 13.012C18.466 10.2878 19.139 7.45115 19.338 4.5041C19.6648 4.77457 19.9742 5.06235 20.2663 5.3696C20.5584 5.67686 20.8289 5.99926 21.082 6.33897C21.3352 6.68085 21.5667 7.03354 21.7766 7.40138C21.9865 7.76922 22.1726 8.15004 22.337 8.53952C22.4993 8.929 22.6399 9.3293 22.7546 9.73608C22.8715 10.1429 22.9623 10.5562 23.0272 10.9738C23.0943 11.3935 23.1333 11.8133 23.1484 12.2374C23.1636 12.6615 23.1527 13.0834 23.1181 13.5054C23.0813 13.9273 23.0208 14.3449 22.9342 14.7604C22.8455 15.1736 22.7351 15.5826 22.5988 15.9829C22.4625 16.3832 22.3045 16.7748 22.1206 17.1578C21.9367 17.5386 21.7311 17.9086 21.504 18.2657C21.2768 18.6227 21.0279 18.9646 20.7575 19.2913C20.4891 19.618 20.2014 19.9274 19.8941 20.2195C19.589 20.5116 19.2645 20.7843 18.9247 21.0374C18.585 21.2906 18.2323 21.5221 17.8645 21.7342Z" fill="white"/>
</g>
<path d="M35.2149 4.41956H29.667V21.4527H35.6909C41.4812 21.4527 44.0171 17.9128 44.0171 12.815C44.0171 7.71714 41.6023 4.41956 35.2149 4.41956ZM33.2069 18.4581V7.29304H34.8774C39.2308 7.29304 40.4772 9.24908 40.4772 12.9361C40.4772 16.6405 39.1097 18.4581 35.3534 18.4581H33.2069Z" fill="white"/>
<path d="M56.5524 15.7159C56.5524 11.3797 53.8693 8.80054 50.2169 8.80054C46.4346 8.80054 44.1323 11.6221 44.1323 15.2313C44.1323 19.0135 46.4779 21.861 50.5717 21.861C53.35 21.861 55.4012 20.5714 56.2408 17.8884L52.8913 17.6547C52.4845 18.7279 51.6709 19.2559 50.5025 19.2559C48.8234 19.2559 47.7502 18.1567 47.603 16.2872H56.5524V15.7159ZM50.3294 11.2672C51.8613 11.2672 52.8653 12.2712 53.0557 13.9936H47.5771C47.7502 12.2885 48.7974 11.2672 50.3294 11.2672Z" fill="white"/>
<path d="M62.5076 21.913C65.8312 21.913 67.9863 20.3983 67.9863 17.7932C67.9863 15.8804 66.8352 14.7552 64.3685 14.2532L61.72 13.6993C60.8285 13.5089 60.3265 13.1021 60.3265 12.4616C60.3265 11.674 61.0449 11.1461 62.1701 11.1461C63.4424 11.1461 64.3512 11.7865 64.5156 12.8684L67.5535 12.7472C67.2419 10.3325 65.208 8.80054 62.222 8.80054C59.1841 8.80054 57.1934 10.3758 57.1934 12.8684C57.1934 14.7552 58.3705 16.0016 60.7853 16.4776L63.226 16.9536C64.3512 17.17 64.8531 17.5335 64.8531 18.1999C64.8531 19.1347 63.8924 19.5674 62.6288 19.5674C61.0189 19.5674 60.1881 18.8664 59.9977 17.6547L56.9078 17.7672C57.2194 20.3983 59.1321 21.913 62.5076 21.913Z" fill="white"/>
<path d="M72.2401 7.48345V4.41956H68.8733V7.48345H72.2401ZM72.2228 21.4527V9.1106H68.8474V21.4527H72.2228Z" fill="white"/>
<path d="M81.9134 10.6441C81.0999 9.4237 79.8795 8.80054 78.2956 8.80054C75.2577 8.80054 73.0074 11.1201 73.0074 15.0408C73.0074 18.8664 75.2144 21.4542 78.2956 21.4542C79.6891 21.4542 80.8143 20.9523 81.6451 19.9483V21.6447C81.6451 23.2026 81.022 24.1114 79.0659 24.1114C77.6032 24.1114 76.7637 23.6094 76.5733 22.4582H73.4661C73.7084 25.0461 75.5953 26.6213 79.1352 26.6213C82.8395 26.6213 85.0206 24.847 85.0206 21.6014V9.11212H82.026L81.9134 10.6441ZM79.04 18.5808C77.4128 18.5808 76.2617 17.2479 76.2617 15.0408C76.2617 12.8684 77.4128 11.5009 79.04 11.5009C80.6671 11.5009 81.8182 12.8857 81.8182 15.0408C81.8182 17.196 80.6671 18.5808 79.04 18.5808Z" fill="white"/>
<path d="M93.3992 8.80054C91.8153 8.80054 90.6469 9.44101 89.8333 10.7825L89.7814 9.11212H86.4838V21.4542H89.8593V14.8504C89.8593 13.0069 90.8373 11.8385 92.2741 11.8385C93.4685 11.8385 94.0657 12.652 94.0657 13.9416V21.4542H97.4411V13.18C97.4411 10.4969 95.9525 8.80054 93.3992 8.80054Z" fill="white"/>
<path d="M110.639 15.7159C110.639 11.3797 107.956 8.80054 104.304 8.80054C100.521 8.80054 98.219 11.6221 98.219 15.2313C98.219 19.0135 100.565 21.861 104.658 21.861C107.437 21.861 109.488 20.5714 110.327 17.8884L106.978 17.6547C106.571 18.7279 105.758 19.2559 104.589 19.2559C102.91 19.2559 101.837 18.1567 101.69 16.2872H110.639V15.7159ZM104.416 11.2672C105.948 11.2672 106.952 12.2712 107.142 13.9936H101.664C101.837 12.2885 102.884 11.2672 104.416 11.2672Z" fill="white"/>
<path d="M117.612 8.77277C116.244 8.77277 115.24 9.49114 114.695 10.8067L114.738 9.11031H111.441V21.4524H114.816V15.4458C114.816 13.057 115.82 11.8799 117.871 11.8799C118.114 11.8799 118.33 11.9059 118.572 11.9319V8.86797C118.235 8.79873 117.897 8.77277 117.612 8.77277Z" fill="white"/>
<path d="M129.997 21.4503C129.642 20.8271 129.521 20.0135 129.521 18.8624V13.4097C129.521 10.3718 127.721 8.82251 124.181 8.82251C120.857 8.82251 119.161 10.0861 118.918 12.7865L122.008 12.8385C122.173 11.6873 122.822 11.2113 124.207 11.2113C125.548 11.2113 126.293 11.6441 126.293 12.5528V13.4616L121.982 14.3185C119.498 14.8205 118.226 16.0928 118.226 18.0575C118.226 20.2991 119.905 21.8051 122.51 21.8051C124.137 21.8051 125.479 21.2079 126.31 20.2039C126.388 20.6367 126.483 21.0175 126.578 21.4503H129.997ZM123.462 19.3211C122.225 19.3211 121.532 18.7239 121.532 17.8411C121.532 17.0275 122.104 16.4996 123.133 16.2832L126.293 15.6167V16.5255C126.293 18.3431 125.072 19.3211 123.462 19.3211Z" fill="white"/>
</svg>
