<svg width="103" height="30" viewBox="0 0 103 30" fill="none" xmlns="http://www.w3.org/2000/svg">
<path d="M35.4088 16.8856C34.5562 16.3738 34.0443 16.0324 34.0443 15.4357C34.0443 14.7529 34.641 14.3273 35.6647 14.3273C36.7733 14.3273 37.797 14.8391 37.797 14.8391L38.5648 12.3663C38.5648 12.3663 37.797 11.7696 35.6654 11.7696C32.6805 11.7696 30.5482 13.4754 30.5482 15.9489C30.5482 17.3132 31.5719 18.4217 32.8509 19.1045C33.8746 19.7012 34.3009 20.1281 34.3009 20.7248C34.3009 21.4076 33.7891 21.9181 32.766 21.9181C31.316 21.9181 29.9515 21.1504 29.9515 21.1504L29.0989 23.6232C29.0989 23.6232 30.3785 24.4764 32.5101 24.4764C35.6661 24.4764 37.8832 22.941 37.8832 20.2117C37.8832 18.6763 36.7746 17.6527 35.4101 16.8856H35.4088ZM47.8603 11.6827C46.3254 11.6827 45.1313 12.4504 44.1938 13.5589H44.1076L45.4721 6.56473H41.9753L38.5641 24.3054H42.0609L43.1694 18.25C43.5957 15.9469 44.7898 14.5825 45.8984 14.5825C46.6662 14.5825 47.007 15.0943 47.007 15.862C47.007 16.3738 46.9208 16.8856 46.8366 17.3974L45.5569 24.3054H49.0537L50.4182 17.1409C50.5886 16.3731 50.6741 15.5206 50.6741 14.8377C50.6741 12.8754 49.6511 11.6821 47.8596 11.6821L47.8603 11.6827ZM58.5203 11.6827C54.3413 11.6827 51.6116 15.4351 51.6116 19.615C51.6116 22.2589 53.232 24.4764 56.3873 24.4764C60.4808 24.4764 63.2164 20.809 63.2164 16.5442C63.2164 14.0714 61.7664 11.6827 58.5256 11.6827H58.5203ZM56.8143 21.8259C55.6209 21.8259 55.1084 20.8023 55.1084 19.5228C55.1084 17.5605 56.1321 14.32 58.0084 14.32C59.288 14.32 59.6288 15.3436 59.6288 16.3672C59.6288 18.5848 58.6051 21.8259 56.8143 21.8259ZM72.0809 11.6827C69.7783 11.6827 68.4145 13.7299 68.4145 13.7299H68.3283L68.4987 11.8538H65.5138L64.8322 16.458L62.444 29.0807H65.9407L66.8789 23.9627H66.9651C66.9651 23.9627 67.648 24.3889 69.0118 24.3889C73.106 24.3889 75.7494 20.2097 75.7494 16.0304C75.6632 13.8128 74.6409 11.6814 72.0829 11.6814L72.0809 11.6827ZM68.7546 21.9188C67.9019 21.9188 67.3052 21.407 67.3052 21.407L67.9019 18.1585C68.3283 16.0264 69.4368 14.5759 70.6309 14.5759C71.6546 14.5759 71.9954 15.5995 71.9954 16.452C71.9954 18.6696 70.7158 21.9108 68.7546 21.9108V21.9188ZM80.6093 6.73578C79.5008 6.73578 78.6481 7.589 78.6481 8.78298C78.6481 9.80658 79.331 10.4888 80.2679 10.4888H80.3541C81.4626 10.4888 82.4008 9.72106 82.4008 8.44156C82.3159 7.41796 81.6337 6.73578 80.6107 6.73578H80.6093ZM75.7481 24.3054H79.2448L81.633 12.0162H78.0508L75.7481 24.2981V24.3054ZM90.418 11.9386H88.0298L88.116 11.342C88.2864 10.1487 88.9687 9.1244 90.1627 9.1244C90.5385 9.12784 90.9118 9.18522 91.2713 9.29478L91.9542 6.65092C91.9542 6.65092 91.3575 6.39502 90.0779 6.39502C88.7983 6.39502 87.6048 6.73644 86.6667 7.50414C85.4732 8.52774 84.9607 9.97696 84.6199 11.4275L84.5337 12.0242H82.9133L82.4015 14.668H84.0219L82.1455 24.3916H85.6423L87.5186 14.668H89.9068L90.418 11.9386ZM98.7747 12.0228C98.7747 12.0228 96.5575 17.4816 95.6187 20.4669H95.5325L94.6812 12.0162H91.0996L93.1463 23.2752C93.2312 23.5311 93.1463 23.7014 93.0601 23.8718C92.5995 24.6887 91.9576 25.3891 91.1838 25.919C90.5009 26.4308 89.8193 26.6867 89.2226 26.9426L90.1614 29.8497C90.8443 29.6793 92.293 29.082 93.5726 27.9735C95.1931 26.5236 96.6424 24.2212 98.0924 21.0655L102.357 11.9393C102.357 12.0255 98.7747 12.0255 98.7747 12.0255V12.0228ZM17.1579 4.00639L16.3053 4.26229C16.2191 3.92087 16.0494 3.57945 15.879 3.23869C15.2823 2.12957 14.429 1.44739 13.3197 1.44739H13.0638C13.0638 1.3612 12.9776 1.3612 12.9776 1.3612C12.5466 0.850067 11.9552 0.679688 11.2737 0.679688C9.90917 0.765872 8.54468 1.70329 7.43611 3.49459C6.58347 4.68791 5.98609 6.3095 5.90123 7.50348L3.17159 8.3567C2.40381 8.6126 2.31895 8.6126 2.23342 9.3803L0.015625 26.0974L17.3283 29.0826V4.00639H17.1579ZM13.1493 5.2859L10.25 6.13912C10.5059 5.02999 11.1026 4.00706 11.7 3.23936C11.9559 2.98345 12.2967 2.72755 12.7237 2.47165C13.0638 3.33151 13.1434 4.51819 13.1434 5.28722L13.1493 5.2859ZM11.273 1.61843C11.6144 1.61843 11.8697 1.70462 12.1256 1.78881C11.7842 1.95919 11.3579 2.30061 11.0171 2.64203C10.1644 3.58011 9.48218 5.03 9.22692 6.48717L6.75387 7.17001C7.26572 5.03795 9.14206 1.71124 11.2737 1.62572L11.273 1.61843ZM8.62888 14.2411C8.71507 15.691 12.6375 16.0324 12.8079 19.5295C12.9783 22.2589 11.3579 24.135 9.0552 24.2205C6.24069 24.3909 4.70581 22.7707 4.70581 22.7707L5.30252 20.2117C5.30252 20.2117 6.83741 21.405 8.11703 21.3201C8.8848 21.2339 9.2256 20.6373 9.2256 20.1268C9.1394 18.1645 5.98477 18.3355 5.72884 15.1798C5.55845 12.536 7.26373 9.80658 11.1019 9.54472C12.552 9.45853 13.3191 9.80062 13.3191 9.80062L12.4664 13.1273C12.4664 13.1273 11.4427 12.701 10.3342 12.7859C8.62822 12.8721 8.54401 13.9792 8.62822 14.2358L8.62888 14.2411ZM14.0868 4.94447C14.0868 4.26163 14.0006 3.23869 13.6605 2.47165C14.6842 2.64203 15.1954 3.83601 15.4507 4.51886C15.0243 4.68924 14.5125 4.77476 14.0862 4.94514L14.0868 4.94447ZM17.9323 29.0826L25.0962 27.2913L21.9403 6.22398C21.9403 6.0536 21.7699 5.96808 21.6843 5.96808C21.5988 5.96808 19.5521 5.88189 19.5521 5.88189L17.8461 4.26163V29.0826H17.9323Z" fill="#080522"/>
</svg>
